<svg xmlns="http://www.w3.org/2000/svg" viewBox="0 0 512 384" fill="none">
  <defs>
    <linearGradient id="bg" x1="40" y1="20" x2="472" y2="364" gradientUnits="userSpaceOnUse">
      <stop stop-color="#EEF2FF"/>
      <stop offset="0.55" stop-color="#FFF7ED"/>
      <stop offset="1" stop-color="#E6FFFB"/>
    </linearGradient>
    <filter id="shadow" x="0" y="0" width="512" height="384" filterUnits="userSpaceOnUse" color-interpolation-filters="sRGB">
      <feDropShadow dx="0" dy="16" stdDeviation="18" flood-color="#0F172A" flood-opacity="0.14"/>
    </filter>
    <linearGradient id="card" x1="170" y1="126" x2="362" y2="258" gradientUnits="userSpaceOnUse">
      <stop stop-color="#0F766E" stop-opacity="0.22"/>
      <stop offset="1" stop-color="#F5AA42" stop-opacity="0.22"/>
    </linearGradient>
  </defs>

  <rect x="0" y="0" width="512" height="384" rx="28" fill="url(#bg)"/>

  <g filter="url(#shadow)">
    <rect x="36" y="28" width="440" height="328" rx="26" fill="rgba(255,255,255,0.78)"/>
    <rect x="36" y="28" width="440" height="328" rx="26" stroke="#E2E8F0" stroke-width="2"/>
  </g>

  <g transform="translate(0 6)">
    <rect x="148" y="124" width="216" height="172" rx="26" fill="rgba(255,255,255,0.92)" stroke="#E2E8F0" stroke-width="3"/>
    <rect x="164" y="138" width="184" height="48" rx="18" fill="url(#card)"/>
    <text x="184" y="170" font-family="ui-sans-serif, system-ui" font-size="18" font-weight="800" fill="#0F172A">
      Quick Quiz
    </text>

    <rect x="164" y="198" width="184" height="26" rx="13" fill="rgba(15,118,110,0.16)"/>
    <rect x="164" y="232" width="184" height="26" rx="13" fill="rgba(245,170,66,0.14)"/>
    <rect x="164" y="266" width="126" height="26" rx="13" fill="rgba(99,102,241,0.12)"/>

    <circle cx="372" cy="152" r="40" fill="rgba(245,170,66,0.16)"/>
    <text x="372" y="166" text-anchor="middle" font-family="ui-sans-serif, system-ui" font-size="46" font-weight="900" fill="#0F766E">
      ?
    </text>
  </g>

  <g>
    <text x="62" y="86" font-family="ui-sans-serif, system-ui" font-size="22" font-weight="800" fill="#0F766E">
      Quick Quiz
    </text>
    <text x="62" y="114" font-family="ui-sans-serif, system-ui" font-size="14" font-weight="600" fill="#64748B">
      Answer fast • earn points
    </text>
  </g>
</svg>

