<svg xmlns="http://www.w3.org/2000/svg" viewBox="0 0 512 384" fill="none">
  <defs>
    <linearGradient id="bg" x1="40" y1="20" x2="472" y2="364" gradientUnits="userSpaceOnUse">
      <stop stop-color="#FFF7ED"/>
      <stop offset="0.55" stop-color="#E0F2FE"/>
      <stop offset="1" stop-color="#F1F5F9"/>
    </linearGradient>
    <filter id="shadow" x="0" y="0" width="512" height="384" filterUnits="userSpaceOnUse" color-interpolation-filters="sRGB">
      <feDropShadow dx="0" dy="16" stdDeviation="18" flood-color="#0F172A" flood-opacity="0.14"/>
    </filter>
    <linearGradient id="ticket" x1="168" y1="136" x2="364" y2="248" gradientUnits="userSpaceOnUse">
      <stop stop-color="#0F766E"/>
      <stop offset="1" stop-color="#F5AA42"/>
    </linearGradient>
    <linearGradient id="scratch" x1="0" y1="0" x2="1" y2="1">
      <stop stop-color="#94A3B8" stop-opacity="0.92"/>
      <stop offset="1" stop-color="#E2E8F0" stop-opacity="0.92"/>
    </linearGradient>
  </defs>

  <rect x="0" y="0" width="512" height="384" rx="28" fill="url(#bg)"/>

  <g filter="url(#shadow)">
    <rect x="36" y="28" width="440" height="328" rx="26" fill="rgba(255,255,255,0.78)"/>
    <rect x="36" y="28" width="440" height="328" rx="26" stroke="#E2E8F0" stroke-width="2"/>
  </g>

  <g transform="translate(0 6)">
    <path d="M162 142 c12 0 12-18 24-18 h140 c12 0 12 18 24 18 v116 c-12 0-12 18-24 18H186c-12 0-12-18-24-18V142Z" fill="#FFFFFF"/>
    <path d="M162 142 c12 0 12-18 24-18 h140 c12 0 12 18 24 18 v116 c-12 0-12 18-24 18H186c-12 0-12-18-24-18V142Z" stroke="#E2E8F0" stroke-width="3"/>

    <rect x="186" y="150" width="140" height="100" rx="18" fill="url(#ticket)" opacity="0.18"/>
    <text x="256" y="206" text-anchor="middle" font-family="ui-sans-serif, system-ui" font-size="36" font-weight="900" fill="#0F172A">
      +80
    </text>
    <text x="256" y="234" text-anchor="middle" font-family="ui-sans-serif, system-ui" font-size="14" font-weight="700" fill="#0F766E">
      points
    </text>

    <rect x="178" y="144" width="156" height="112" rx="20" fill="url(#scratch)"/>
    <path d="M188 184 c22-16 36-10 58 6 c16 12 34 16 56 6 c14-6 24-18 40-20" stroke="#CBD5E1" stroke-width="10" stroke-linecap="round"/>
    <path d="M196 214 c18-10 30-6 48 6 c14 10 30 14 52 4 c16-7 30-16 46-18" stroke="#CBD5E1" stroke-width="10" stroke-linecap="round"/>
    <circle cx="222" cy="176" r="16" fill="rgba(255,255,255,0.32)"/>
  </g>

  <g>
    <text x="62" y="86" font-family="ui-sans-serif, system-ui" font-size="22" font-weight="800" fill="#0F766E">
      Scratch Card
    </text>
    <text x="62" y="114" font-family="ui-sans-serif, system-ui" font-size="14" font-weight="600" fill="#64748B">
      Scratch to reveal a prize
    </text>
  </g>
</svg>

