<svg xmlns="http://www.w3.org/2000/svg" viewBox="0 0 512 384" fill="none">
  <defs>
    <linearGradient id="bg" x1="40" y1="20" x2="472" y2="364" gradientUnits="userSpaceOnUse">
      <stop stop-color="#E6FFFB"/>
      <stop offset="0.6" stop-color="#FFF7ED"/>
      <stop offset="1" stop-color="#EEF2FF"/>
    </linearGradient>
    <linearGradient id="ring" x1="180" y1="80" x2="332" y2="292" gradientUnits="userSpaceOnUse">
      <stop stop-color="#0F766E"/>
      <stop offset="1" stop-color="#F5AA42"/>
    </linearGradient>
    <filter id="shadow" x="0" y="0" width="512" height="384" filterUnits="userSpaceOnUse" color-interpolation-filters="sRGB">
      <feDropShadow dx="0" dy="16" stdDeviation="18" flood-color="#0F172A" flood-opacity="0.14"/>
    </filter>
  </defs>

  <rect x="0" y="0" width="512" height="384" rx="28" fill="url(#bg)"/>

  <g filter="url(#shadow)">
    <rect x="36" y="28" width="440" height="328" rx="26" fill="rgba(255,255,255,0.78)"/>
    <rect x="36" y="28" width="440" height="328" rx="26" stroke="#E2E8F0" stroke-width="2"/>
  </g>

  <g transform="translate(0 6)">
    <circle cx="256" cy="194" r="112" fill="#FFFFFF"/>
    <circle cx="256" cy="194" r="112" stroke="url(#ring)" stroke-width="14"/>

    <path d="M256 82 A112 112 0 0 1 352 138 L256 194 Z" fill="rgba(15,118,110,0.20)"/>
    <path d="M352 138 A112 112 0 0 1 352 250 L256 194 Z" fill="rgba(245,170,66,0.18)"/>
    <path d="M352 250 A112 112 0 0 1 256 306 L256 194 Z" fill="rgba(99,102,241,0.16)"/>
    <path d="M256 306 A112 112 0 0 1 160 250 L256 194 Z" fill="rgba(34,197,94,0.14)"/>
    <path d="M160 250 A112 112 0 0 1 160 138 L256 194 Z" fill="rgba(244,63,94,0.12)"/>
    <path d="M160 138 A112 112 0 0 1 256 82 L256 194 Z" fill="rgba(14,165,233,0.14)"/>

    <circle cx="256" cy="194" r="30" fill="#FFFFFF" stroke="#E2E8F0" stroke-width="3"/>
    <path d="M256 58 L236 92 H276 Z" fill="#0F766E"/>
  </g>

  <g>
    <text x="62" y="86" font-family="ui-sans-serif, system-ui" font-size="22" font-weight="800" fill="#0F766E">
      Spin the Wheel
    </text>
    <text x="62" y="114" font-family="ui-sans-serif, system-ui" font-size="14" font-weight="600" fill="#64748B">
      Fast luck game • score → points
    </text>
  </g>
</svg>

