<svg xmlns="http://www.w3.org/2000/svg" viewBox="0 0 512 384" fill="none">
  <defs>
    <linearGradient id="bg" x1="40" y1="20" x2="472" y2="364" gradientUnits="userSpaceOnUse">
      <stop stop-color="#E6FFFB"/>
      <stop offset="0.55" stop-color="#EEF2FF"/>
      <stop offset="1" stop-color="#FFF7ED"/>
    </linearGradient>
    <filter id="shadow" x="0" y="0" width="512" height="384" filterUnits="userSpaceOnUse" color-interpolation-filters="sRGB">
      <feDropShadow dx="0" dy="16" stdDeviation="18" flood-color="#0F172A" flood-opacity="0.14"/>
    </filter>
    <linearGradient id="btn" x1="180" y1="128" x2="332" y2="276" gradientUnits="userSpaceOnUse">
      <stop stop-color="#0F766E"/>
      <stop offset="1" stop-color="#F5AA42"/>
    </linearGradient>
  </defs>

  <rect x="0" y="0" width="512" height="384" rx="28" fill="url(#bg)"/>

  <g filter="url(#shadow)">
    <rect x="36" y="28" width="440" height="328" rx="26" fill="rgba(255,255,255,0.78)"/>
    <rect x="36" y="28" width="440" height="328" rx="26" stroke="#E2E8F0" stroke-width="2"/>
  </g>

  <g transform="translate(0 6)">
    <circle cx="256" cy="206" r="92" fill="rgba(15,118,110,0.10)"/>
    <circle cx="256" cy="206" r="70" fill="url(#btn)" opacity="0.9"/>
    <text x="256" y="214" text-anchor="middle" font-family="ui-sans-serif, system-ui" font-size="38" font-weight="900" fill="#FFFFFF">
      TAP
    </text>

    <path d="M136 206 h54" stroke="#F5AA42" stroke-width="10" stroke-linecap="round"/>
    <path d="M158 176 h50" stroke="#0F766E" stroke-width="10" stroke-linecap="round"/>
    <path d="M152 236 h58" stroke="#6366F1" stroke-width="10" stroke-linecap="round"/>
    <path d="M322 176 h50" stroke="#F5AA42" stroke-width="10" stroke-linecap="round"/>
    <path d="M334 206 h54" stroke="#0F766E" stroke-width="10" stroke-linecap="round"/>
    <path d="M322 236 h58" stroke="#6366F1" stroke-width="10" stroke-linecap="round"/>

    <path d="M260 120 c28 10 44 30 48 58 c2 20-4 40-18 56" stroke="rgba(15,23,42,0.12)" stroke-width="12" stroke-linecap="round"/>
  </g>

  <g>
    <text x="62" y="86" font-family="ui-sans-serif, system-ui" font-size="22" font-weight="800" fill="#0F766E">
      Tap Challenge
    </text>
    <text x="62" y="114" font-family="ui-sans-serif, system-ui" font-size="14" font-weight="600" fill="#64748B">
      10 seconds • beat your best
    </text>
  </g>
</svg>

