<svg xmlns="http://www.w3.org/2000/svg" width="800" height="600" viewBox="0 0 800 600">
  <defs>
    <linearGradient id="bg" x1="0" y1="0" x2="1" y2="1">
      <stop offset="0" stop-color="#dcfce7"/>
      <stop offset="0.55" stop-color="#ffffff"/>
      <stop offset="1" stop-color="#cffafe"/>
    </linearGradient>
    <linearGradient id="stripe" x1="0" y1="0" x2="1" y2="1">
      <stop offset="0" stop-color="#22c55e" stop-opacity="0.18"/>
      <stop offset="1" stop-color="#06b6d4" stop-opacity="0.14"/>
    </linearGradient>
    <filter id="shadow" x="-20%" y="-20%" width="140%" height="140%">
      <feDropShadow dx="0" dy="10" stdDeviation="12" flood-color="#0f172a" flood-opacity="0.18"/>
    </filter>
  </defs>

  <rect x="0" y="0" width="800" height="600" rx="44" fill="url(#bg)"/>
  <path d="M0 90 L90 0 H330 L0 330 Z" fill="url(#stripe)"/>
  <path d="M800 520 L520 800 H800 Z" fill="url(#stripe)"/>

  <g filter="url(#shadow)">
    <rect x="48" y="48" width="704" height="504" rx="40" fill="#ffffff" opacity="0.82"/>
  </g>

  <g transform="translate(440 120)">
    <circle cx="56" cy="44" r="26" fill="#0f172a"/>
    <path d="M44 74 L66 74 L74 150 L54 150 Z" fill="#0f172a"/>
    <path d="M56 108 L16 122" stroke="#0f172a" stroke-width="16" stroke-linecap="round"/>
    <path d="M66 110 L104 150" stroke="#0f172a" stroke-width="16" stroke-linecap="round"/>
    <path d="M58 150 L22 196" stroke="#0f172a" stroke-width="18" stroke-linecap="round"/>
    <path d="M70 150 L112 190" stroke="#0f172a" stroke-width="18" stroke-linecap="round"/>
  </g>

  <g transform="translate(92 250)">
    <text x="0" y="64" font-family="ui-sans-serif, system-ui, -apple-system, Segoe UI, Roboto, Helvetica, Arial" font-size="58" font-weight="900" fill="#0f172a">VEX</text>
    <text x="0" y="142" font-family="ui-sans-serif, system-ui, -apple-system, Segoe UI, Roboto, Helvetica, Arial" font-size="88" font-weight="900" fill="#0f172a" opacity="0.9">RUNNER</text>
    <rect x="0" y="174" width="190" height="12" rx="6" fill="#22c55e" opacity="0.55"/>
    <rect x="0" y="198" width="250" height="12" rx="6" fill="#06b6d4" opacity="0.35"/>
  </g>
</svg>

