<svg xmlns="http://www.w3.org/2000/svg" width="800" height="600" viewBox="0 0 800 600">
  <defs>
    <linearGradient id="bg" x1="0" y1="0" x2="1" y2="1">
      <stop offset="0" stop-color="#e0f2fe"/>
      <stop offset="0.55" stop-color="#ffffff"/>
      <stop offset="1" stop-color="#dcfce7"/>
    </linearGradient>
    <linearGradient id="stripe" x1="0" y1="0" x2="1" y2="1">
      <stop offset="0" stop-color="#0f766e" stop-opacity="0.22"/>
      <stop offset="1" stop-color="#f5aa42" stop-opacity="0.18"/>
    </linearGradient>
    <filter id="shadow" x="-20%" y="-20%" width="140%" height="140%">
      <feDropShadow dx="0" dy="10" stdDeviation="12" flood-color="#0f172a" flood-opacity="0.18"/>
    </filter>
  </defs>

  <rect x="0" y="0" width="800" height="600" rx="44" fill="url(#bg)"/>
  <path d="M0 85 L85 0 H280 L0 280 Z" fill="url(#stripe)"/>
  <path d="M800 520 L520 800 H800 Z" fill="url(#stripe)"/>

  <g filter="url(#shadow)">
    <rect x="48" y="48" width="704" height="504" rx="40" fill="#ffffff" opacity="0.82"/>
  </g>

  <g transform="translate(74 90)">
    <rect x="0" y="0" width="300" height="10" rx="5" fill="#0f766e" opacity="0.25"/>
    <rect x="0" y="26" width="190" height="10" rx="5" fill="#0f766e" opacity="0.18"/>
  </g>

  <g transform="translate(460 120)">
    <circle cx="56" cy="44" r="26" fill="#0f172a"/>
    <path d="M44 74 L66 74 L74 150 L54 150 Z" fill="#0f172a"/>
    <path d="M54 112 L18 150" stroke="#0f172a" stroke-width="16" stroke-linecap="round"/>
    <path d="M66 112 L110 150" stroke="#0f172a" stroke-width="16" stroke-linecap="round"/>
    <path d="M60 150 L42 206" stroke="#0f172a" stroke-width="18" stroke-linecap="round"/>
    <path d="M70 150 L96 208" stroke="#0f172a" stroke-width="18" stroke-linecap="round"/>
  </g>

  <g transform="translate(88 230)">
    <text x="0" y="190" font-family="ui-sans-serif, system-ui, -apple-system, Segoe UI, Roboto, Helvetica, Arial" font-size="220" font-weight="900" fill="#0f172a" opacity="0.9">8</text>
    <text x="16" y="238" font-family="ui-sans-serif, system-ui, -apple-system, Segoe UI, Roboto, Helvetica, Arial" font-size="42" font-weight="800" letter-spacing="2" fill="#0f766e">VEX</text>
  </g>
</svg>

