<svg xmlns="http://www.w3.org/2000/svg" width="800" height="600" viewBox="0 0 800 600">
  <defs>
    <linearGradient id="bg" x1="0" y1="0" x2="1" y2="1">
      <stop offset="0" stop-color="#ffedd5"/>
      <stop offset="0.55" stop-color="#ffffff"/>
      <stop offset="1" stop-color="#dcfce7"/>
    </linearGradient>
    <linearGradient id="stripe" x1="0" y1="0" x2="1" y2="1">
      <stop offset="0" stop-color="#f59e0b" stop-opacity="0.20"/>
      <stop offset="1" stop-color="#22c55e" stop-opacity="0.16"/>
    </linearGradient>
    <filter id="shadow" x="-20%" y="-20%" width="140%" height="140%">
      <feDropShadow dx="0" dy="10" stdDeviation="12" flood-color="#0f172a" flood-opacity="0.18"/>
    </filter>
  </defs>

  <rect x="0" y="0" width="800" height="600" rx="44" fill="url(#bg)"/>
  <path d="M0 110 L110 0 H360 L0 360 Z" fill="url(#stripe)"/>
  <path d="M800 500 L500 800 H800 Z" fill="url(#stripe)"/>

  <g filter="url(#shadow)">
    <rect x="48" y="48" width="704" height="504" rx="40" fill="#ffffff" opacity="0.82"/>
  </g>

  <g transform="translate(466 120)">
    <circle cx="56" cy="44" r="26" fill="#0f172a"/>
    <path d="M44 74 L66 74 L74 150 L54 150 Z" fill="#0f172a"/>
    <path d="M54 114 L14 154" stroke="#0f172a" stroke-width="16" stroke-linecap="round"/>
    <path d="M66 114 L112 136" stroke="#0f172a" stroke-width="16" stroke-linecap="round"/>
    <path d="M60 150 L44 206" stroke="#0f172a" stroke-width="18" stroke-linecap="round"/>
    <path d="M70 150 L104 210" stroke="#0f172a" stroke-width="18" stroke-linecap="round"/>
  </g>

  <g transform="translate(88 230)">
    <text x="0" y="190" font-family="ui-sans-serif, system-ui, -apple-system, Segoe UI, Roboto, Helvetica, Arial" font-size="220" font-weight="900" fill="#0f172a" opacity="0.9">6</text>
    <text x="16" y="238" font-family="ui-sans-serif, system-ui, -apple-system, Segoe UI, Roboto, Helvetica, Arial" font-size="42" font-weight="800" letter-spacing="2" fill="#f59e0b">VEX</text>
  </g>
</svg>

